<?xml version="1.0" encoding="utf-8"?>
<!-- Generator: Adobe Illustrator 19.2.1, SVG Export Plug-In . SVG Version: 6.00 Build 0)  -->
<svg version="1.1" id="layer" xmlns="http://www.w3.org/2000/svg" xmlns:xlink="http://www.w3.org/1999/xlink" x="0px" y="0px"
	 viewBox="0 0 652 652" style="enable-background:new 0 0 652 652;" xml:space="preserve">
<style type="text/css">
	.st0{fill:#E21216;}
</style>
<path class="st0" d="M570.7,71c50.3,1.4,111.3,3.6,148,41.8c21.3,22.7,33.3,59.5,33.3,92.1c0,43.9-20,68.7-31.2,79.4
	c-14.2,14.1-32.6,23.3-50.3,31.8c20.5,6.5,41.8,12.8,60.8,31.2c20.6,20.5,34.7,55.9,34.7,93.5c0.8,32.8-11.7,64.4-34.7,87.8
	c-39.6,40.3-92.1,41.1-148.7,42.5h-230V469l44.6,0.7V172.3l-44.6,0.7V71H570.7z M527.5,272.1c40.4,0.8,46,0.8,56-1.4
	c23.3-4.9,39.6-26,38.4-49.8c0-26.2-15-41-25.5-46c-10.4-5-18.5-5.7-68.8-6.4L527.5,272.1z M527.5,469h39c27.6,0,66.5-0.6,66.5-48.1
	c0-25-13.5-41.8-30.5-48.2c-12-5-17.6-5-75-5L527.5,469z"/>
<polygon points="-122.5,71 92.1,71 92.1,173 48.2,172.3 121.1,458.4 199.8,172.3 155.9,173 155.9,71 352.7,71 352.7,173 
	319.4,172.3 195.5,571 34,571 -91.3,172.3 -122.5,173 "/>
</svg>
