<svg id="Layer_1" data-name="Layer 1" xmlns="http://www.w3.org/2000/svg" viewBox="0 0 96 29.5"><defs><style>.cls-1{fill-rule:evenodd;}</style></defs><path class="cls-1" d="M81.1,15.45h11c0-3.66-2.32-6.21-5.3-6.21S81.47,11.31,81.1,15.45ZM94.84,28.28a16,16,0,0,1-6.27,1.22c-3.47,0-6.57-.67-8.75-2.85s-3-5.43-3-8.9a12,12,0,0,1,2.88-8.31A9.44,9.44,0,0,1,87.1,6.2a8,8,0,0,1,6.58,2.89C95.23,11,96,13.73,96,17.26l0,1.23H81.18a7.37,7.37,0,0,0,7.47,7.94c1.55,0,5.16-1.11,6.29-2.35l-.1,4.2ZM45.52,29V6.71h3.63V9.93c1.6-3.23,3.93-4,7-3.71.41,0,.84,0,1.29.1v3.4a8.55,8.55,0,0,0-3.19,0c-2.81.48-4.87,4.71-4.87,7.17V29Zm-16.47.51a10.36,10.36,0,0,1-8-3.13,12,12,0,0,1-2.94-8.52,11.92,11.92,0,0,1,2.94-8.5,10.36,10.36,0,0,1,8-3.13,10.38,10.38,0,0,1,8,3.13c2,2.09,2.93,4.92,2.93,8.5S39,24.27,37,26.37A10.38,10.38,0,0,1,29.05,29.5Zm0-3a5.68,5.68,0,0,0,4.8-2.25,10.43,10.43,0,0,0,1.7-6.36,10.33,10.33,0,0,0-1.7-6.34,5.68,5.68,0,0,0-4.8-2.25,5.64,5.64,0,0,0-4.79,2.25,10.4,10.4,0,0,0-1.69,6.34,10.5,10.5,0,0,0,1.69,6.36A5.64,5.64,0,0,0,29.05,26.46ZM14.62,29a12.2,12.2,0,0,1-3.24.51,6.37,6.37,0,0,1-4.8-1.76,6.72,6.72,0,0,1-1.72-4.9V9.75H0v-3H4.86V1.43L8.9,0V6.71h5.48v3H8.9V22.09c0,2.92,1.26,4.37,3.77,4.37a9.28,9.28,0,0,0,1.95-.26V29Zm47.25,0V6.71H65.5V9.93c1.6-3.23,3.93-4,7-3.71.41,0,.85,0,1.3.1v3.4a8.55,8.55,0,0,0-3.19,0c-2.82.48-4.88,4.71-4.88,7.17V29Z"/></svg>