<svg xmlns="http://www.w3.org/2000/svg" width="57" height="80" viewBox="0 0 57 80">
    <g fill="none" fill-rule="nonzero" style="mix-blend-mode:luminosity">
        <path fill="#535353" d="M.424 15.873l5.11 57.456 22.931 6.38 22.995-6.388 5.116-57.448H.424zm43.833 32.056l-1.488 13.9.006 1.19L28.5 67.016l-.011.01-14.39-3.952-.973-11.01h7.056l.5 5.565 7.82 2.092-.002.01v-.02l7.85-2.22.828-9.237H20.77l-.14-1.495-.32-3.586-.169-1.903h17.661l.643-6.984h-26.9l-.141-1.644-.32-3.829-.168-2.146h35.21l-.168 2.116-1.7 19.146z"/>
        <path fill="#1572B6" d="M44.333 8.491l-4.527-5.316h4.527V0H34.2v2.77l5.314 4.849H34.2v3.175h10.133V8.49zm-12.033 0l-4.311-5.316H32.3V0h-9.5v2.77l4.898 4.849H22.8v3.175h9.5V8.49zM20.9 7.62h-5.067V3.175H20.9V0h-8.867v10.794H20.9V7.619z"/>
    </g>
</svg>
