<?xml version="1.0" encoding="utf-8"?>
<svg version="1.1" id="Layer_1" xmlns="http://www.w3.org/2000/svg" xmlns:xlink="http://www.w3.org/1999/xlink" x="0px" y="0px"
	 width="1040.077px" height="163.365px" viewBox="0 0 1040.077 163.365" enable-background="new 0 0 1040.077 163.365"
	 xml:space="preserve">
<g>
	<path fill-rule="evenodd" clip-rule="evenodd" fill="#222222" d="M595.083,159.905c0-5.161,0-9.471,0-14.355
		c1.66-0.146,3.23-0.357,4.807-0.41c11.81-0.4,13.342-1.922,13.374-13.895c0.049-18.652,0.022-37.305,0.011-55.957
		c-0.006-11.491,0.097-22.984-0.113-34.471c-0.156-8.545-2.569-10.706-11.266-10.931c-2.119-0.055-4.241-0.008-6.655-0.008
		c0-5.435,0-10.35,0-15.564c1.133-0.164,2.233-0.461,3.335-0.462c24.98-0.009,49.962-0.13,74.941,0.098
		c11.216,0.103,22.161,2.161,32.29,7.308c13.601,6.911,22.726,17.833,27.265,32.268c7.1,22.574,6.979,45.297-1.234,67.515
		c-8.445,22.84-25.979,35.457-49.633,37.521c-21.162,1.846-42.558,1.033-63.852,1.327
		C610.736,159.994,603.117,159.905,595.083,159.905z M644.126,144.01c8.427,0,16.385,0.193,24.331-0.038
		c21.627-0.632,32.081-13.687,35.534-32.921c2.873-16.006,2.587-32.12,0.857-48.214c-1.768-16.448-10.738-28.38-24.782-30.487
		c-11.71-1.757-23.739-1.39-35.94-1.978C644.126,68.811,644.126,106.182,644.126,144.01z"/>
	<path fill-rule="evenodd" clip-rule="evenodd" fill="#222222" d="M213.075,48.909c12.142,0,23.939-0.08,35.731,0.133
		c1.079,0.02,2.818,1.759,3.073,2.951c1.514,7.089,2.681,14.252,3.988,21.519c0.696-1.552,1.429-3.302,2.252-5.007
		c7.126-14.747,21.175-22.811,37.658-22.047c11.384,0.527,21.24,3.905,28.002,13.626c4.192,6.027,6.114,12.928,6.205,20.189
		c0.216,17.328,0.18,34.658,0.247,51.987c0.006,1.5-0.069,3.007,0.051,4.498c0.61,7.557,1.827,8.71,9.434,9.186
		c1.143,0.071,2.277,0.255,3.812,0.432c0,4.344,0,8.561,0,13.157c-19.205,0-38.434,0-58.403,0c0-3.583-0.235-7.206,0.149-10.761
		c0.109-1.018,2.077-2.698,3.086-2.624c13.557,0.997,12.57-4.135,12.551-13.978c-0.028-14.165-0.007-28.329-0.007-42.494
		c0-0.332,0-0.666,0-1c-0.009-14.377-3.178-19.861-12.831-22.201c-10.85-2.631-23.034,2.819-27.956,13.353
		c-2.193,4.695-3.697,10.112-3.894,15.263c-0.546,14.312-0.284,28.654-0.255,42.985c0.013,6.266,1.311,7.53,7.589,7.793
		c2.292,0.096,4.592,0.016,7.245,0.016c0,4.851,0,9.084,0,13.672c-19.197,0-38.41,0-57.918,0c0-4.404,0-8.633,0-13.322
		c2.059-0.111,3.843-0.204,5.627-0.305c5.756-0.326,7.418-1.856,7.473-7.611c0.119-12.497,0.076-24.996,0.077-37.493
		c0-8.331,0.056-16.665-0.088-24.995c-0.128-7.388-2.02-9.461-9.379-10.062c-2.881-0.235-4.25-1.064-4.055-4.156
		c0.209-3.32,0.043-6.663,0.083-9.995C212.628,50.967,212.831,50.319,213.075,48.909z"/>
	<path fill-rule="evenodd" clip-rule="evenodd" fill="#222222" d="M103.988,26.916c5.796-15.852,1.289-12.92,18.918-12.923
		c0.142,0,0.283,0.137,0.798,0.401c0,14.508,0,29.212,0,44.493c-5.669,0-11.285,0.161-16.874-0.151
		c-0.98-0.055-2.271-1.958-2.685-3.243c-0.958-2.98-1.211-6.191-2.207-9.155c-2.974-8.851-8.929-14.554-18.2-16.631
		c-8.435-1.89-16.868-2.049-25.112,0.584c-14.043,4.485-21.235,15.42-24.021,28.862c-4.232,20.422-4.226,41.034,2.117,61.171
		c7.645,24.272,38,33.917,58.661,18.843c7.707-5.623,10.469-13.856,11.973-23.238c5.82,0,11.704,0,17.98,0
		c0,14.413,0,28.811,0,43.953c-4.463,0-8.894,0.176-13.291-0.132c-1.011-0.071-2.369-1.646-2.765-2.804
		c-1.124-3.284-1.833-6.71-2.716-10.125c-0.181,0-0.642-0.127-0.756,0.019c-9.292,11.774-21.929,16.088-36.391,16.482
		c-16.953,0.463-32.765-2.736-46.043-14.138c-10.63-9.129-16.816-20.943-19.855-34.389c-4.974-22.002-5.376-43.941,3.41-65.168
		c9.09-21.96,25.834-34.554,49.313-37.798C62.77,10.928,69.527,10.781,76.1,11.3C87.363,12.19,96.77,17.169,103.988,26.916z"/>
	<path fill-rule="evenodd" clip-rule="evenodd" fill="#222222" d="M935.461,145.056c1.469,10.344,1.171,10.913-8.004,14.95
		c-7.189,3.163-14.892,3.344-22.487,1.289c-9.273-2.508-13.62-7.787-15.614-18.939c-3.274,7.205-7.52,12.941-14.319,16.467
		c-14.653,7.596-34.823,4.61-45.349-6.437c-8.639-9.067-11.604-32.747,5.079-41.862c8.349-4.562,17.729-7.252,26.678-10.693
		c6.028-2.318,12.344-4.007,18.13-6.807c8.656-4.189,10.832-8.912,9.408-17.636c-1.283-7.859-6.209-12.698-14.91-13.641
		c-4.555-0.494-9.245-0.039-13.847,0.33c-2.57,0.206-4.107,1.731-3.894,4.73c0.178,2.476-0.061,4.995-0.268,7.481
		c-0.704,8.457-7.242,13.542-15.976,12.494c-7.941-0.953-13.151-8.153-11.671-16.201c2.031-11.045,10.072-16.605,19.573-20.056
		c15.112-5.49,30.667-5.86,46.01-0.985c14.395,4.573,23.411,16.774,23.991,32.236c0.586,15.636,0.596,31.293,0.855,46.941
		c0.033,1.998,0.012,3.999,0.082,5.996c0.305,8.75,3.994,11.939,12.712,10.984C932.921,145.558,934.184,145.274,935.461,145.056z
		 M889.499,98.824c-7.537,3.929-14.275,7.345-20.917,10.941c-3.489,1.89-6.784,4.136-10.21,6.149
		c-7.49,4.401-6.909,22.363-1.625,26.75c2.406,1.998,5.708,3.676,8.762,4.001c10.878,1.155,20.393-5.671,22.156-16.994
		C889.237,119.573,888.957,109.186,889.499,98.824z"/>
	<path fill-rule="evenodd" clip-rule="evenodd" fill="#222222" d="M580.538,103.442c0.12,9.581-1.895,20.307-5.228,27.152
		c-8.188,20.836-24.993,30.422-46.618,31.754c-24.471,1.509-48.363-8.733-57.288-36.756c-3.319-10.423-4.014-21.164-2.529-32.073
		c1.993-14.643,7.985-27.018,19.908-36.094c20.642-15.714,54.397-14.883,73.794,2.188C575.646,71.115,580.75,86.27,580.538,103.442
		C580.955,103.515,580.122,103.37,580.538,103.442z M551.115,103.869c-0.435-9.807-2.032-17.456-4.298-25.673
		c-2.881-10.448-12.023-16.409-22.53-16.265c-10.83,0.148-19.251,5.888-22.288,16.604c-4.907,17.312-4.558,34.87,0.353,52.124
		c3.205,11.26,10.809,16.442,22.092,16.466c11.259,0.023,19.122-5.18,22.124-16.373
		C548.908,122.025,550.967,114.938,551.115,103.869z"/>
	<path fill-rule="evenodd" clip-rule="evenodd" fill="#222222" d="M1015.498,59.137c4.693-11.265,5.887-11.905,17.945-9.574
		c0,10.153,0,20.38,0,31.29c-5.234,0-10.335,0.122-15.419-0.115c-0.887-0.042-2.115-1.446-2.49-2.475
		c-5.073-13.902-18.693-18.595-31.779-15.307c-6.702,1.684-9.825,5.601-10.089,12.43c-0.258,6.679,2.149,10.636,9.151,12.335
		c9.984,2.422,20.182,3.959,30.266,5.982c17.229,3.457,26.891,14.758,26.993,31.436c0.115,18.852-9.729,32.414-27.013,35.467
		c-8.228,1.453-16.873,1.59-25.229,0.97c-8.727-0.647-15.996-5.217-21.321-12.602c-5.048,12.263-5.048,12.263-18.627,10.392
		c0-5.513,0-11.122,0-16.73c0-5.654,0-11.307,0-17.373c5.985,0,11.703,0,17.638,0c0.5,1.531,0.958,3.105,1.523,4.639
		c3.771,10.24,11.188,16.033,21.973,16.818c5.053,0.367,10.536,0.336,15.204-1.293c3.661-1.276,7.511-4.713,9.264-8.201
		c3.805-7.571,0.3-14.803-7.994-17.102c-7.169-1.986-14.649-2.832-21.973-4.281c-3.901-0.773-7.85-1.479-11.624-2.691
		c-17.882-5.744-24.439-18.809-22.472-37.282c1.908-17.921,16.868-27.351,32.539-29.058c3.291-0.359,6.646-0.296,9.965-0.205
		C1001.771,46.876,1010.196,49.988,1015.498,59.137z"/>
	<path fill-rule="evenodd" clip-rule="evenodd" fill="#222222" d="M451.46,135.953c2.837,9.437-1.317,15.229-9.422,19.802
		c-21.605,12.191-63.266,9.695-78.672-20.423c-11.972-23.402-8.192-56.381,9.214-73.569c11.588-11.443,26-15.568,41.916-15.301
		c9.231,0.155,18.211,1.5,26.412,6.162c9.52,5.411,14.772,16.114,12.237,25.013c-1.807,6.344-6.17,9.327-13.551,9.267
		c-7.304-0.061-12.127-3.196-13.562-9.354c-0.746-3.2-1.073-6.596-0.935-9.875c0.142-3.353-1.215-5.126-4.263-5.526
		c-11.778-1.546-23.836,0.102-29.842,14.834c-2.208,5.417-3.691,11.505-3.794,17.319c-0.167,9.41,0.073,19.053,1.966,28.22
		c2.75,13.315,12.953,20.881,26.628,21.146c6.104,0.119,12.372-0.096,18.298-1.386C439.992,140.997,445.556,138.173,451.46,135.953z
		"/>
	<path fill-rule="evenodd" clip-rule="evenodd" fill="#222222" d="M188.025,48.892c0,9.875,0,18.863,0,27.851
		c0,19.165-0.005,38.33,0.003,57.494c0.004,10.746,0.555,11.316,11.07,11.775c1.128,0.049,2.251,0.225,3.644,0.368
		c0,4.482,0,8.713,0,13.235c-19.435,0-38.678,0-58.618,0c0-3.715-0.194-7.336,0.128-10.909c0.087-0.964,1.6-2.185,2.709-2.573
		c1.349-0.475,2.962-0.234,4.461-0.232c4.567,0.01,6.682-2.334,6.69-6.811c0.006-2.832,0.135-5.664,0.132-8.495
		c-0.016-17.997,0.06-35.997-0.133-53.993c-0.091-8.537-1.722-10.182-10.09-10.878c-2.958-0.246-3.917-1.247-3.992-4.24
		c-0.314-12.594-0.411-12.592,11.954-12.592C166.441,48.892,176.898,48.892,188.025,48.892z"/>
	<path fill-rule="evenodd" clip-rule="evenodd" fill="#222222" d="M796.484,49.282c0,2.197,0,4.142,0,6.088
		c0,25.146-0.001,50.291,0.001,75.437c0,1.665-0.034,3.333,0.027,4.995c0.331,9.043,1.143,10.08,10.164,10.078
		c4.036-0.002,5.352,1.344,5,5.195c-0.252,2.765-0.049,5.57-0.049,8.59c-19.727,0-38.825,0-58.329,0c0-4.343,0-8.693,0-13.477
		c2.092-0.092,4.047-0.158,5.999-0.267c5.806-0.324,7.474-1.974,7.582-8.149c0.14-7.991,0.047-15.986,0.048-23.979
		c0.003-11.49-0.054-22.981,0.015-34.471c0.062-10.388-2.371-14.276-12.144-13.841c-0.45,0.02-0.915-0.297-1.625-0.545
		c0-5.08,0-10.17,0-15.654C767.429,49.282,781.619,49.282,796.484,49.282z"/>
	<path fill-rule="evenodd" clip-rule="evenodd" fill="#222222" d="M765.257,39.966c-1.675-2.479-3.044-4.505-4.616-6.832
		c7.823-9.503,15.446-18.905,23.244-28.16c2.922-3.469,6.97-5.161,11.494-4.958c4.65,0.208,8.425,2.386,10.055,6.903
		c1.649,4.571,1.613,9.289-2.051,13.002c-2.058,2.085-4.546,3.939-7.167,5.239C786.127,30.164,775.907,34.901,765.257,39.966z"/>
	<path fill-rule="evenodd" clip-rule="evenodd" fill="#222222" d="M171.152,36.939c-9.321-0.043-16.477-7.172-16.475-16.414
		c0.002-9,7.481-16.57,16.477-16.677c8.922-0.105,16.963,7.98,16.841,16.937C187.872,29.822,180.406,36.982,171.152,36.939z"/>
</g>
</svg>
