<svg xmlns="http://www.w3.org/2000/svg" width="57" height="80" viewBox="0 0 57 80">
    <path fill="#535353" fill-rule="nonzero" d="M.36 16.508l5.122 57.091 22.983 6.148 23.047-6.031 5.128-57.208H.36zm45.626 12.997l-.32 3.705-.142 1.71h-26.96l.644 7.62h25.675l-.172 1.416-1.656 18.355-.121 1.073L28.5 67.28v-.003l-.017.007-14.426-3.756-.979-10.829h7.073l.501 5.372 7.844 1.993.004-.149v.008l7.86-1.682.822-8.716H12.764l-1.732-19.579-.17-2.008h35.293l-.169 1.568zM5.672.398h3.56v3.528h3.259V.398h3.56v10.68h-3.56V7.503H9.233v3.577h-3.56V.399zM20.734 3.94H17.6V.398h9.833V3.94h-3.137v7.139h-3.56V3.94zM28.992.398h3.713l2.284 3.753L37.271.398h3.715v10.68h-3.548V5.786L34.99 9.582h-.062l-2.45-3.797v5.294H28.99V.399h.001zm13.766 0h3.562v7.15h5.008v3.531h-8.57V.4z" style="mix-blend-mode:luminosity"/>
</svg>
